<svg width="86" height="38" viewBox="0 0 86 38" xmlns="http://www.w3.org/2000/svg"><title>Group</title><g fill="#4A4A4A" fill-rule="evenodd"><path d="M85.7 15.75c0-5.85-4.75-10.6-10.6-10.6-2.85 0-5.4 1.1-7.3 2.95l-.3.3c-.55.55-1 1.15-1.4 1.85 0 0-.7 1.05-1 2.1-.4 1.1-.6 2.25-.6 3.45 0 1.55.35 3 .9 4.3.5-.65.95-1.45 1.2-2.3.25-.6.45-1.25.65-2 .2-.8.6-2.2 1.2-3.3.3-.6.55-.95.95-1.4l.3-.3c1.35-1.45 3.3-2.4 5.4-2.4 4.1 0 7.4 3.3 7.4 7.4 0 4.1-3.3 7.4-7.4 7.4-2.15 0-4.05-.9-5.4-2.4-.5.95-1.15 1.85-1.9 2.65 1.55 1.5 3.55 2.5 5.75 2.8v5.65l-1.7-1.7-2.2 2.2 5.45 5.45 5.45-5.45-2.2-2.2-1.7 1.7v-5.7c5.1-.75 9.05-5.15 9.05-10.45z"/><path d="M68.9 21.3s.7-1.05 1-2.1c.4-1.1.6-2.25.6-3.45 0-1.5-.3-2.95-.9-4.25v-.05c-.15.2-.25.4-.4.6-.25.45-.5.95-.7 1.45-.25.65-.55 1.4-.75 2.25-.2.75-.6 2.1-1.15 3.2-.3.7-.6 1.05-1 1.5-.1.1-.2.25-.3.35-1.35 1.45-3.3 2.4-5.4 2.4-4.1 0-7.4-3.3-7.4-7.4 0-4.1 3.3-7.4 7.4-7.4 2.15 0 4.05.9 5.4 2.4.5-.95 1.15-1.85 1.9-2.65-1.9-1.8-4.5-2.95-7.3-2.95-5.85 0-10.6 4.75-10.6 10.6 0 5.3 3.95 9.7 9.05 10.45v5.65l-1.7-1.7-2.2 2.2 5.45 5.45 5.45-5.45-2.2-2.2-1.7 1.7v-5.7c2.2-.35 4.2-1.3 5.7-2.8l.3-.3.05-.05c.55-.5 1-1.1 1.4-1.75zM25.4.3L17.65.25v3.1h2.4l-4.3 4.3C14.3 6.95 12.7 6.5 11 6.5 5.15 6.5.4 11.25.4 17.1S5.15 27.8 11 27.8c2.8 0 5.4-1.1 7.3-2.9l.3-.3.05-.05c.5-.55.95-1.15 1.35-1.75 0 0 .7-1.05 1-2.1.4-1.1.6-2.25.6-3.45 0-1.5-.3-2.95-.9-4.25v-.05c-.15.2-.25.4-.4.6-.3.45-.5.95-.7 1.45-.25.65-.55 1.4-.75 2.25-.2.75-.6 2.1-1.15 3.2-.3.7-.6 1.05-1 1.5-.1.1-.2.25-.3.35-1.35 1.45-3.3 2.4-5.4 2.4-4.1 0-7.4-3.3-7.4-7.4 0-4.1 3.35-7.5 7.4-7.5 2.15 0 4.05.9 5.4 2.4.45-.9 1.05-1.7 1.7-2.45l4.1-4.1v1.2c1-.4 2.05-.6 3.1-.7V.3h.1z"/><path d="M40.55.3L32.8.25v3.1h2.4l-4.3 4.3c-1.45-.7-3.05-1.15-4.75-1.15-.25 0-.55 0-.8.05-1.05.1-2.15.35-3.1.75h-.1c-.3.1-.55.25-.85.4 0 0-.05 0-.05.05-.85.45-1.7 1.05-2.4 1.7l-.3.3c-.55.55-1 1.15-1.4 1.85 0 0-.7 1.05-1 2.1-.4 1.1-.6 2.25-.6 3.45 0 1.55.35 3 .9 4.3.5-.65.95-1.45 1.2-2.3.25-.6.45-1.25.65-2 .2-.8.6-2.2 1.2-3.3.3-.6.55-.95.95-1.4l.3-.3c1.35-1.45 3.3-2.4 5.4-2.4 4.1 0 7.4 3.3 7.4 7.4 0 4.1-3.3 7.4-7.4 7.4-2.15 0-4.05-.9-5.4-2.4-.5.95-1.15 1.85-1.9 2.65 1.9 1.8 4.5 2.95 7.3 2.95 5.85 0 10.6-4.75 10.6-10.6 0-3-1.25-5.7-3.3-7.65l3.95-3.95v2.4h3.1L40.55.3z"/></g></svg>